<svg width="32" height="30" viewBox="0 0 32 30" fill="none" xmlns="http://www.w3.org/2000/svg">
<path d="M28.3 0.39994H14.3C13.1954 0.39994 12.3 1.29537 12.3 2.39994V7.39994H16.3H3.29999C1.59999 7.39994 0.299988 8.69994 0.299988 10.3999V21.3999C0.299988 23.0999 1.59999 24.3999 3.29999 24.3999H4.29999V29.4999L10.6 24.3999H15.3C16.4046 24.3999 17.3 23.5045 17.3 22.3999V17.3999H28.3C30 17.3999 31.3 16.0999 31.3 14.3999V3.39994C31.3 1.69994 30 0.39994 28.3 0.39994ZM11.1 20.2999L10.6 18.6999H7.49999L6.89999 20.2999H4.49999L7.79999 11.3999H10.2L13.5 20.2999H11.1ZM26.3 12.3999V14.3999C25 14.3999 23.6 13.9999 22.4 13.3999C21.2 13.9999 19.8 14.2999 18.4 14.3999L18.3 12.3999C19 12.3999 19.7 12.2999 20.4 12.0999C19.5 11.1999 18.9 10.0999 18.6 8.89994H20.7C21 9.79994 21.6 10.4999 22.3 11.0999C23.4 10.1999 24.1 8.89994 24.2 7.39994H18.2V5.39994H21.2V3.39994H23.2V5.39994H26.5L26.6 6.39994C26.7 8.49994 25.9 10.5999 24.4 12.0999C25.1 12.2999 25.7 12.3999 26.3 12.3999Z" fill="#64748B"/>
</svg>
